<?xml version="1.0" standalone="no"?>
<!DOCTYPE svg PUBLIC "-//W3C//DTD SVG 20010904//EN"
 "http://www.w3.org/TR/2001/REC-SVG-20010904/DTD/svg10.dtd">
<svg version="1.0" xmlns="http://www.w3.org/2000/svg"
 width="70.000000pt" height="70.000000pt" viewBox="0 0 70.000000 70.000000"
 preserveAspectRatio="xMidYMid meet">
<metadata>
Created by potrace 1.14, written by Peter Selinger 2001-2017
</metadata>
<g transform="translate(0.000000,70.000000) scale(0.100000,-0.100000)"
fill="#000000" stroke="none">
<path d="M240 684 c-57 -21 -123 -66 -148 -102 -17 -25 -19 -46 -18 -241 l1
-213 43 -38 c75 -67 124 -84 232 -85 82 0 103 4 150 26 68 32 131 93 167 162
25 47 28 63 28 152 0 87 -3 107 -26 155 -33 70 -98 135 -169 169 -70 33 -191
40 -260 15z m162 -156 c8 -28 8 -48 -2 -82 -10 -37 -10 -49 0 -61 18 -21 56
-19 73 6 14 20 15 19 36 -14 24 -40 29 -126 8 -167 -7 -14 -39 -39 -72 -57
-32 -17 -64 -38 -71 -47 -15 -21 -37 -20 -87 5 -56 28 -75 46 -98 92 -23 44
-27 133 -9 168 7 13 37 50 67 81 54 58 83 109 83 150 0 21 1 21 30 -7 17 -16
35 -46 42 -67z m98 -34 c0 -25 -24 -49 -40 -39 -13 8 -13 38 2 70 11 25 13 26
25 9 7 -10 13 -28 13 -40z"/>
</g>
</svg>
